<svg xmlns="http://www.w3.org/2000/svg" width="118.174" height="152.187" viewBox="0 0 118.174 152.187">
  <g id="DH" transform="translate(296.137 -322.811)">
    <path id="home" d="M163.5,555.932a7.475,7.475,0,0,1-5.224-2.119l-17.121-16.622H115.812a7.5,7.5,0,0,1-7.5-7.5V448.48a7.5,7.5,0,0,1,3.076-6.056l50.965-37.235a7.5,7.5,0,0,1,8.779-.05l52.208,37.235a7.5,7.5,0,0,1,3.145,6.106v81.211a7.5,7.5,0,0,1-7.5,7.5H188.53a7.5,7.5,0,0,1,0-15h22.955V452.343L166.83,420.495l-43.518,31.794v69.9h20.883a7.5,7.5,0,0,1,5.224,2.119l19.3,18.741a7.5,7.5,0,0,1-5.225,12.881Z" transform="translate(-404.448 -80.934)" fill="#fff"/>
    <path id="DH-2" data-name="DH" d="M12.974,50.144l-.187,0C2.6,49.955-.792,45.239.15,44.579c.425-.3.83.581,2.081,1.459,1.523,1.068,4.3,2.138,9.9,1.087,10.194-1.914,19.4-20.157,21.146-25.889s4.514-14.111,3.9-14.378c-3.18-1.184-7.8.247-9.374.378-2.263.189-8.147,3.125-8.5,3.061s1.018-2.9,3.092-4.121S32.6,2.494,37.965,3.936s9.525,4.243,10.561,5.846-1.037,6.13-1.792,6.224,1.038-3.584,0-3.866-1.791.094-3.488,2.546S41.36,18.93,37.965,26.945c-3.374,7.966-14.85,23.2-24.989,23.2Zm28.139-11.1c-.049-1.03,1.468-5.13,3.677-10.312-2.034-.347-4.321-1.851-3.836-3.394.213-.679,2.641-1.17,5.974-1.483C51.9,12.812,58.514-.1,60.238,0c2.869.159,8.606,10.2,7.969,11-.313.391-1.049-.256-2-.9-.986-.67-2.2-1.34-3.42-.852-1.171.468-4.977,7.124-8.557,14.228,5.287-.109,10.667.094,13.019.593.347.074.694.166,1.034.272,2.523-5.626,8.136-19.088,10.759-19.4,2.709-.319,7.649,8.128,6.215,8.924-.717.4-1.315-.12-1.933-.638s-1.255-1.036-2.051-.637c-1.265.633-5.141,8.7-7.8,15.024.223.4.149.7-.326.779-.557,1.346-1.049,2.59-1.435,3.64-2.232,6.056-1.435,11.634-2.391,11.634s-6.375,1.274-7.012,0c-.564-1.13,2.493-10.874,4.861-16.745-4.717-.975-10.547-.347-14.854.433-2.93,6.09-5.306,11.739-5.306,13.283,0,3.666.637,6.694,0,7.331a.166.166,0,0,1-.122.045C45.894,48.016,41.265,42.231,41.114,39.046Zm-37,1.2c1.616-3.232,6.283-11.626,8.707-15.666S21.085,10.82,24.48,10.348A7.185,7.185,0,0,1,31.133,13.8c.326.979-.806,4.185-1.466,4.28s-.283-2.83-1.228-2.933-7.881,8.726-9.806,11.326-5.846,11.033-8.11,12.448c-2,1.247-5.46,1.32-6.249,1.32Z" transform="translate(-279.807 373.832)" fill="#fff"/>
  </g>
</svg>
