<svg xmlns="http://www.w3.org/2000/svg" width="118.174" height="152.187" viewBox="0 0 118.174 152.187">
  <path id="パス_1" data-name="パス 1" d="M163.5,555.932a7.475,7.475,0,0,1-5.224-2.119l-17.121-16.622H115.812a7.5,7.5,0,0,1-7.5-7.5V448.48a7.5,7.5,0,0,1,3.076-6.056l50.965-37.235a7.5,7.5,0,0,1,8.779-.05l52.208,37.235a7.5,7.5,0,0,1,3.145,6.106v81.211a7.5,7.5,0,0,1-7.5,7.5H188.53a7.5,7.5,0,0,1,0-15h22.955V452.343L166.83,420.495l-43.518,31.794v69.9h20.883a7.5,7.5,0,0,1,5.224,2.119l19.3,18.741a7.5,7.5,0,0,1-5.225,12.881Z" transform="translate(-108.312 -403.745)" fill="#fff"/>
</svg>
